<?xml version="1.0" encoding="UTF-8"?>
<svg width="174px" height="40px" viewBox="0 0 174 40" version="1.1" xmlns="http://www.w3.org/2000/svg" xmlns:xlink="http://www.w3.org/1999/xlink">
    <title>logo-black</title>
    <g id="layout" stroke="none" stroke-width="1" fill="none" fill-rule="evenodd">
        <g transform="translate(-95.000000, -8.000000)">
            <g id="sketch" transform="translate(11.736544, 8.000000)">
                <g id="logo-black" transform="translate(83.263456, 0.000000)">
                    <g id="symbols" transform="translate(8.897727, 15.000000)" fill="#000000">
                        <path d="M162.065629,3.50206809 L148.263622,3.50206809 C147.85768,3.50206809 147.522994,3.20712695 147.522994,2.70672924 C147.522994,2.3416322 147.85768,2.04812281 148.263622,2.04812281 L163.953545,2.04812281 C164.589088,2.04812281 165.102273,1.58996182 165.102273,1.02513522 C165.102273,0.458876869 164.589088,0.0014317531 163.953545,0.0014317531 L148.263622,0.0014317531 C146.588034,0.0014317531 145.226259,1.21484251 145.226259,2.84417754 C145.226259,4.33749602 146.588034,5.55233853 148.263622,5.55233853 L162.065629,5.55233853 C162.47373,5.55233853 162.804097,5.84441616 162.804097,6.24172765 C162.804097,6.60467706 162.47373,6.89890232 162.065629,6.89890232 L146.374267,6.89890232 C145.739443,6.89890232 145.226259,7.35706332 145.226259,7.92332167 C145.226259,8.48814827 145.739443,8.94845689 146.374267,8.94845689 L162.065629,8.94845689 C163.739778,8.94845689 165.102273,7.73504613 165.102273,6.20808145 C165.102273,4.71619472 163.739778,3.50206809 162.065629,3.50206809" id="S"></path>
                        <path d="M128.548113,6.89890232 C129.185095,6.89890232 129.69684,7.35706332 129.69684,7.92332167 C129.69684,8.48814827 129.185095,8.94845689 128.548113,8.94845689 L128.548113,8.94845689 L109.128423,8.94845689 C108.495039,8.94845689 107.981854,8.48814827 107.981854,7.92332167 C107.981854,7.35706332 108.495039,6.89890232 109.128423,6.89890232 L109.128423,6.89890232 Z M128.548113,3.50206809 C129.185095,3.50206809 129.69684,3.96094496 129.69684,4.52577156 C129.69684,5.09202991 129.185095,5.55090678 128.548113,5.55090678 L128.548113,5.55090678 L109.128423,5.55090678 C108.495039,5.55090678 107.981854,5.09202991 107.981854,4.52577156 C107.981854,3.96094496 108.495039,3.50206809 109.128423,3.50206809 L109.128423,3.50206809 Z M128.548113,0 C129.185095,0 129.69684,0.458876869 129.69684,1.02513522 C129.69684,1.58996182 129.185095,2.04812281 128.548113,2.04812281 L128.548113,2.04812281 L109.128423,2.04812281 C108.495039,2.04812281 107.981854,1.58996182 107.981854,1.02513522 C107.981854,0.458876869 108.495039,0 109.128423,0 L109.128423,0 Z" id="E"></path>
                        <path d="M91.354091,6.89890232 L74.9091454,6.89890232 L74.9091454,1.02513522 C74.9091454,0.458876869 74.3974001,0.0014317531 73.7611373,0.0014317531 C73.1270338,0.0014317531 72.613849,0.458876869 72.613849,1.02513522 L72.613849,8.94845689 L91.354091,8.94845689 C91.9910735,8.94845689 92.5028188,8.48814827 92.5028188,7.92332167 C92.5028188,7.35706332 91.9910735,6.89890232 91.354091,6.89890232" id="L"></path>
                        <path d="M55.9846464,6.89890232 L39.5404206,6.89890232 L39.5404206,1.02513522 C39.5404206,0.458876869 39.0272358,0.0014317531 38.3916928,0.0014317531 C37.7561497,0.0014317531 37.2429649,0.458876869 37.2429649,1.02513522 L37.2429649,8.94845689 L55.9846464,8.94845689 C56.6201894,8.94845689 57.1333742,8.48814827 57.1333742,7.92332167 C57.1333742,7.35706332 56.6201894,6.89890232 55.9846464,6.89890232" id="L"></path>
                        <path d="M2.29745563,4.1091314 L2.29745563,2.70959275 C2.29745563,2.3444957 2.63142161,2.04812281 3.04096179,2.04812281 L18.7388024,2.04812281 C19.1497821,2.04812281 19.4830283,2.3444957 19.4830283,2.70959275 L19.4830283,4.1091314 L2.29745563,4.1091314 Z M18.7388024,0.0014317531 L3.04096179,0.0014317531 C1.36537385,0.0014317531 0,1.21627426 0,2.70959275 L0,5.12782374 C0,5.12997136 0,5.13211899 0,5.13426662 C0,5.13641425 0,5.13856188 0,5.14070951 L0,7.97558066 C0,8.54183901 0.513184794,9 1.14872781,9 C1.78427084,9 2.29745563,8.54183901 2.29745563,7.97558066 L2.29745563,6.15868597 L19.4830283,6.15868597 L19.4830283,7.95696787 C19.4830283,8.52322622 19.9954934,8.98210309 20.6310364,8.98210309 C21.2680189,8.98210309 21.7812037,8.52322622 21.7812037,7.95696787 L21.7812037,2.70959275 C21.7812037,1.21627426 20.4158299,0.0014317531 18.7388024,0.0014317531 L18.7388024,0.0014317531 Z" id="A"></path>
                    </g>
                    <path d="M20.2677729,2.15335475 C10.2942799,2.15335475 2.1822244,10.1580921 2.1822244,19.9982055 C2.1822244,29.8397545 10.2942799,37.8466453 20.2677729,37.8466453 C30.239811,37.8466453 38.3518665,29.8397545 38.3518665,19.9982055 C38.3518665,10.1580921 30.239811,2.15335475 20.2677729,2.15335475 Z M20.2677729,40 C9.09114687,40 0,31.0276886 0,19.9982055 C0,8.97159366 9.09114687,0 20.2677729,0 C31.4414892,0 40.5340909,8.97159366 40.5340909,19.9982055 C40.5340909,31.0276886 31.4414892,40 20.2677729,40 L20.2677729,40 Z" id="circle" fill="#57B2D9"></path>
                </g>
            </g>
        </g>
    </g>
</svg>
