<svg width="43px" height="46px" version="1.1" xmlns="http://www.w3.org/2000/svg">
    <path d="M37.030042,11.6946692 C38.2665288,12.0000744 39.342974,12.7744233 40.1736489,13.7611649 C41.2651366,15.0577206 41.938768,16.7358534 41.9960244,18.5688857 L41.9960244,18.5688857 L42,25.0264273 C42,27.1928272 41.138901,29.1581185 39.7402516,30.5986451 C38.3390269,32.0418241 36.3983483,32.9585383 34.24345,33.0228026 L34.24345,33.0228026 L32.6730186,33.0239911 L32.6728292,43.2144034 L24.2756428,33.0257696 L18.9091899,33.0264273 C18.5530788,33.0264273 18.2023931,33.0032003 17.8585755,32.9581509 L17.8585755,32.9581509 L21.661901,28.3434905 L25.030042,28.3436399 C28.2868259,28.3436399 31.2405722,27.0462267 33.4026742,24.9401027 C35.5721228,22.8268223 36.9443266,19.8992569 37.026171,16.6512018 L37.026171,16.6512018 Z" id="cloud-under" stroke="#57B2D9" stroke-width="2" fill="#FFFFFF"></path>
    <path d="M24,1 C26.209139,1 28.209139,1.8954305 29.6568542,3.34314575 C31.1045695,4.790861 32,6.790861 32,9 L32,9 L32,15.1411765 C32,17.3503155 31.1045695,19.3503155 29.6568542,20.7980307 C28.209139,22.245746 26.209139,23.1411765 24.0000346,23.1411765 L24.0000346,23.1411765 L18.4222785,23.1409837 L10.121455,33.2141911 L10.120947,23.0835348 C7.46041126,23.3880727 5.04360309,22.4609461 3.36674661,20.8063674 C1.89948313,19.3585971 1,17.3548922 1,15.1411765 L1,15.1411765 L1,9 C1,6.790861 1.8954305,4.790861 3.34314575,3.34314575 C4.790861,1.8954305 6.790861,1 9,1 L9,1 Z" id="cloud-over" stroke="#57B2D9" stroke-width="2" fill="#FFFFFF"></path>
    <rect id="stripe" fill="#57B2D9" x="6" y="8" width="21" height="2" rx="1"></rect>
    <rect id="stripe" fill="#57B2D9" x="6" y="14" width="21" height="2" rx="1"></rect>
</svg>
