<svg width="14px" height="14px" viewBox="0 0 14 14" xmlns="http://www.w3.org/2000/svg">
    <g id="unpin" transform="translate(-303.000000, -176.000000)" fill="#1C7CA6">
        <path d="M309,177 C310.198856,177 311.399393,177.284633 312.601611,177.8539 C313.135031,178.128816 313.476059,178.35144 313.624695,178.521774 C313.77333,178.692108 313.740769,178.922599 313.52701,179.213247 L313.52701,179.213247 L312.601611,182.080244 C313.771874,182.469473 314.641576,182.940771 315.210717,183.494139 C315.779858,184.047506 316.0412,184.675904 315.994741,185.379332 C314.10959,186.299008 312.224503,186.846908 310.33948,187.02303 L309.442366,190.840401 C309.291642,190.9468 309.144186,191 309,191 C308.855813,191 308.730394,190.9468 308.623742,190.840401 L307.68073,187.024886 C305.789616,186.85078 303.899684,186.302262 302.010932,185.379332 C301.940704,184.712206 302.20883,184.083809 302.815308,183.494139 C303.421787,182.904469 304.284705,182.433171 305.404062,182.080244 L305.404062,182.080244 L304.478663,179.213247 C304.273019,178.91227 304.238485,178.681779 304.375063,178.521774 C304.579928,178.281767 304.878572,178.026806 305.404062,177.8539 C305.929552,177.680994 307.201715,177 309,177 Z" id="Combined-Shape" transform="translate(309.000000, 184.000000) rotate(-315.000000) translate(-309.000000, -184.000000) "></path>
    </g>
</svg>
