<?xml version="1.0" encoding="UTF-8"?>
<svg width="32px" height="32px" viewBox="0 0 32 32" version="1.1" xmlns="http://www.w3.org/2000/svg" xmlns:xlink="http://www.w3.org/1999/xlink">
    <title>Combined Shape</title>
    <g id="layout" stroke="none" stroke-width="1" fill="none" fill-rule="evenodd">
        <g id="Artboard-Copy-3" transform="translate(-12.000000, -12.000000)" fill="#000000">
            <g id="sketch" transform="translate(12.564971, 8.000000)">
                <g id="strikes" transform="translate(0.000000, 4.564971)">
                    <path d="M3.41421356,0.585786438 L15.435,12.606 L27.4558441,0.585786438 C28.1957849,-0.154154326 29.371269,-0.193098576 30.1570565,0.468953686 L30.2842712,0.585786438 C31.0653198,1.36683502 31.0653198,2.63316498 30.2842712,3.41421356 L30.2842712,3.41421356 L18.264,15.435 L30.2842712,27.4558441 C31.0653198,28.2368927 31.0653198,29.5032227 30.2842712,30.2842712 C29.5032227,31.0653198 28.2368927,31.0653198 27.4558441,30.2842712 L15.435,18.264 L3.41421356,30.2842712 C2.6742728,31.024212 1.49878864,31.0631563 0.713001205,30.401104 L0.585786438,30.2842712 C-0.195262146,29.5032227 -0.195262146,28.2368927 0.585786438,27.4558441 L0.585786438,27.4558441 L12.606,15.435 L0.585786438,3.41421356 C-0.195262146,2.63316498 -0.195262146,1.36683502 0.585786438,0.585786438 C1.36683502,-0.195262146 2.63316498,-0.195262146 3.41421356,0.585786438 Z" id="Combined-Shape"></path>
                </g>
            </g>
        </g>
    </g>
</svg>