<?xml version="1.0" encoding="UTF-8"?>
<svg width="45px" height="32px" viewBox="0 0 45 32" version="1.1" xmlns="http://www.w3.org/2000/svg" xmlns:xlink="http://www.w3.org/1999/xlink">
    <title>Combined Shape</title>
    <g id="layout" stroke="none" stroke-width="1" fill="none" fill-rule="evenodd">
        <g id="Artboard" transform="translate(-12.000000, -12.000000)" fill="#FFFFFF">
            <g id="strikes" transform="translate(12.000000, 12.000000)">
                <path d="M43,28 C44.1045695,28 45,28.8954305 45,30 C45,31.1045695 44.1045695,32 43,32 L2,32 C0.8954305,32 1.3527075e-16,31.1045695 0,30 C-1.3527075e-16,28.8954305 0.8954305,28 2,28 L43,28 Z M30,14 C31.1045695,14 32,14.8954305 32,16 C32,17.1045695 31.1045695,18 30,18 L2,18 C0.8954305,18 1.3527075e-16,17.1045695 0,16 C-1.3527075e-16,14.8954305 0.8954305,14 2,14 L30,14 Z M30,0 C31.1045695,-2.02906125e-16 32,0.8954305 32,2 C32,3.1045695 31.1045695,4 30,4 L2,4 C0.8954305,4 1.3527075e-16,3.1045695 0,2 C-1.3527075e-16,0.8954305 0.8954305,2.02906125e-16 2,0 L30,0 Z" id="Combined-Shape"></path>
            </g>
        </g>
    </g>
</svg>