<?xml version="1.0" encoding="UTF-8"?>
<svg width="28px" height="28px" viewBox="0 0 28 28" version="1.1" xmlns="http://www.w3.org/2000/svg" xmlns:xlink="http://www.w3.org/1999/xlink">
    <title>cleaner</title>
    <g id="icons" stroke="none" stroke-width="1" fill="none" fill-rule="evenodd">
        <g id="Artboard-Copy" transform="translate(-26.000000, -31.000000)" stroke="#000000">
            <g id="cleaner" transform="translate(26.000000, 32.666757)">
                <path d="M27,23.7710417 L19.265837,23.7710417 C19.209243,22.9962852 19.3166142,22.4904736 19.5879504,22.2536068 C19.8265825,22.0452895 20.4293621,21.8754237 20.8064068,21.7740267 C22.3365893,21.362521 23.7949116,21.362521 25.1661632,21.7740267 C25.6108435,21.907473 26.3666206,22.2995812 26.6679643,22.6182195 C26.8800673,22.8424955 26.9907459,23.2267696 27,23.7710417 Z" id="Path" fill="#FFD94F"></path>
                <path d="M23.1255933,21.4653974 C21.2595819,11.9734786 19.9729964,6.53328971 19.265837,5.14483073 C18.2050979,3.06214225 8.14037702,0.141318057 7.3182604,0.00751520834 C6.49614378,-0.12628764 5.04089962,1.55138636 6.46930215,3.06214225 C7.89770468,4.57289813 16.030438,5.14483073 14.8010934,7.88215798 C13.9815303,9.70704281 13.2942503,11.1518496 12.7392534,12.2165784" id="Path-2" stroke-width="2"></path>
                <path d="M2.73342857,19.8510983 C3.08951591,16.1904788 1.42795803,12.7175792 7.61680851,12.2165784 C13.805659,11.7155776 15.9480917,16.8528625 16.6344108,19.8510983 C17.0919568,21.8499221 13.7114354,23.1565699 6.4928463,23.7710417 C3.74917626,23.5981591 2.49603702,22.2915112 2.73342857,19.8510983 Z" id="Path-3" stroke-width="2" fill="#FFD94F"></path>
                <circle id="Oval" fill="#FFFFFF" cx="4.15913" cy="21.2740265" r="3.65913"></circle>
            </g>
        </g>
    </g>
</svg>