<?xml version="1.0" encoding="UTF-8"?>
<svg width="22px" height="26px" viewBox="0 0 22 26" version="1.1" xmlns="http://www.w3.org/2000/svg" xmlns:xlink="http://www.w3.org/1999/xlink">
    <title>shower</title>
    <g id="icons" stroke="none" stroke-width="1" fill="none" fill-rule="evenodd">
        <g id="Artboard-Copy" transform="translate(-67.000000, -31.000000)">
            <g id="shower" transform="translate(68.000000, 32.000000)">
                <g id="drops-row" transform="translate(0.704509, 21.739130)" fill="#57B2D9">
                    <path d="M6.56467631,0 C5.77460562,0.759363618 5.37957027,1.38953056 5.37957027,1.89050083 C5.37957027,2.64195624 5.98428074,3.26086957 6.56467631,3.26086957 C7.14507187,3.26086957 7.71912032,2.77117344 7.71912032,1.89050083 C7.71912032,1.30338576 7.33430565,0.673218818 6.56467631,0 Z" id="Path-4"></path>
                    <path d="M1.18510603,0 C0.395035345,0.759363618 0,1.38953056 0,1.89050083 C0,2.64195624 0.604710469,3.26086957 1.18510603,3.26086957 C1.7655016,3.26086957 2.33955005,2.77117344 2.33955005,1.89050083 C2.33955005,1.30338576 1.95473538,0.673218818 1.18510603,0 Z" id="Path-4"></path>
                    <path d="M11.9442466,0 C11.1541759,0.759363618 10.7591405,1.38953056 10.7591405,1.89050083 C10.7591405,2.64195624 11.363851,3.26086957 11.9442466,3.26086957 C12.5246421,3.26086957 13.0986906,2.77117344 13.0986906,1.89050083 C13.0986906,1.30338576 12.7138759,0.673218818 11.9442466,0 Z" id="Path-4"></path>
                    <path d="M17.3238169,0 C16.5337462,0.759363618 16.1387108,1.38953056 16.1387108,1.89050083 C16.1387108,2.64195624 16.7434213,3.26086957 17.3238169,3.26086957 C17.9042124,3.26086957 18.4782609,2.77117344 18.4782609,1.89050083 C18.4782609,1.30338576 18.0934462,0.673218818 17.3238169,0 Z" id="Path-4"></path>
                </g>
                <g id="drops-row" transform="translate(0.704509, 16.304348)" fill="#57B2D9">
                    <path d="M6.56467631,0 C5.77460562,0.759363618 5.37957027,1.38953056 5.37957027,1.89050083 C5.37957027,2.64195624 5.98428074,3.26086957 6.56467631,3.26086957 C7.14507187,3.26086957 7.71912032,2.77117344 7.71912032,1.89050083 C7.71912032,1.30338576 7.33430565,0.673218818 6.56467631,0 Z" id="Path-4"></path>
                    <path d="M1.18510603,0 C0.395035345,0.759363618 0,1.38953056 0,1.89050083 C0,2.64195624 0.604710469,3.26086957 1.18510603,3.26086957 C1.7655016,3.26086957 2.33955005,2.77117344 2.33955005,1.89050083 C2.33955005,1.30338576 1.95473538,0.673218818 1.18510603,0 Z" id="Path-4"></path>
                    <path d="M11.9442466,0 C11.1541759,0.759363618 10.7591405,1.38953056 10.7591405,1.89050083 C10.7591405,2.64195624 11.363851,3.26086957 11.9442466,3.26086957 C12.5246421,3.26086957 13.0986906,2.77117344 13.0986906,1.89050083 C13.0986906,1.30338576 12.7138759,0.673218818 11.9442466,0 Z" id="Path-4"></path>
                    <path d="M17.3238169,0 C16.5337462,0.759363618 16.1387108,1.38953056 16.1387108,1.89050083 C16.1387108,2.64195624 16.7434213,3.26086957 17.3238169,3.26086957 C17.9042124,3.26086957 18.4782609,2.77117344 18.4782609,1.89050083 C18.4782609,1.30338576 18.0934462,0.673218818 17.3238169,0 Z" id="Path-4"></path>
                </g>
                <rect id="Rectangle" stroke="#000000" x="0" y="10.8695652" width="19.726248" height="2.17391304" rx="1.08695652"></rect>
                <path d="M0.00174935984,8.45410628 L19.6707031,8.45410628 C19.8869251,7.61557524 19.4718743,6.66962486 18.4255507,5.61625515 C17.3792272,4.56288545 15.8855392,3.58724323 13.9444868,2.68932849 L13.9444868,0 L5.72796568,0 L5.72796568,2.68932849 C3.60299369,3.77240138 2.10930572,4.7480436 1.24690176,5.61625515 C0.384497804,6.48446671 -0.0305529961,7.43041708 0.00174935984,8.45410628 Z" id="Path-5" stroke="#000000" stroke-linejoin="round"></path>
            </g>
        </g>
    </g>
</svg>