<?xml version="1.0" encoding="UTF-8"?>
<svg width="243px" height="57px" viewBox="0 0 243 57" version="1.1" xmlns="http://www.w3.org/2000/svg" xmlns:xlink="http://www.w3.org/1999/xlink">
    <title>logo-black</title>
    <g id="logo" stroke="none" stroke-width="1" fill="none" fill-rule="evenodd">
        <g id="Artboard" transform="translate(-119.000000, -28.000000)">
            <g id="logo-black" transform="translate(119.825000, 28.829000)">
                <g id="symbols" transform="translate(12.730000, 21.010000)" fill="#000000">
                    <path d="M225.168,4.892 L205.992,4.892 C205.428,4.892 204.963,4.48 204.963,3.781 C204.963,3.271 205.428,2.861 205.992,2.861 L227.791,2.861 C228.674,2.861 229.387,2.221 229.387,1.432 C229.387,0.641 228.674,0.002 227.791,0.002 L205.992,0.002 C203.664,0.002 201.772,1.697 201.772,3.973 C201.772,6.059 203.664,7.756 205.992,7.756 L225.168,7.756 C225.735,7.756 226.194,8.164 226.194,8.719 C226.194,9.226 225.735,9.637 225.168,9.637 L203.367,9.637 C202.485,9.637 201.772,10.277 201.772,11.068 C201.772,11.857 202.485,12.5 203.367,12.5 L225.168,12.5 C227.494,12.5 229.387,10.805 229.387,8.672 C229.387,6.588 227.494,4.892 225.168,4.892" id="S"></path>
                    <path d="M178.6,9.637 C179.485,9.637 180.196,10.277 180.196,11.068 C180.196,11.857 179.485,12.5 178.6,12.5 L178.6,12.5 L151.619,12.5 C150.739,12.5 150.026,11.857 150.026,11.068 C150.026,10.277 150.739,9.637 151.619,9.637 L151.619,9.637 Z M178.6,4.892 C179.485,4.892 180.196,5.533 180.196,6.322 C180.196,7.113 179.485,7.754 178.6,7.754 L178.6,7.754 L151.619,7.754 C150.739,7.754 150.026,7.113 150.026,6.322 C150.026,5.533 150.739,4.892 151.619,4.892 L151.619,4.892 Z M178.6,0 C179.485,0 180.196,0.641 180.196,1.432 C180.196,2.221 179.485,2.861 178.6,2.861 L178.6,2.861 L151.619,2.861 C150.739,2.861 150.026,2.221 150.026,1.432 C150.026,0.641 150.739,0 151.619,0 L151.619,0 Z" id="E"></path>
                    <path d="M126.924,9.637 L104.076,9.637 L104.076,1.432 C104.076,0.641 103.365,0.002 102.481,0.002 C101.6,0.002 100.887,0.641 100.887,1.432 L100.887,12.5 L126.924,12.5 C127.809,12.5 128.52,11.857 128.52,11.068 C128.52,10.277 127.809,9.637 126.924,9.637" id="L"></path>
                    <path d="M77.783,9.637 L54.936,9.637 L54.936,1.432 C54.936,0.641 54.223,0.002 53.34,0.002 C52.457,0.002 51.744,0.641 51.744,1.432 L51.744,12.5 L77.783,12.5 C78.666,12.5 79.379,11.857 79.379,11.068 C79.379,10.277 78.666,9.637 77.783,9.637" id="L"></path>
                    <path d="M3.192,5.74 L3.192,3.785 C3.192,3.275 3.656,2.861 4.225,2.861 L26.035,2.861 C26.606,2.861 27.069,3.275 27.069,3.785 L27.069,5.74 L3.192,5.74 Z M26.035,0.002 L4.225,0.002 C1.897,0.002 0,1.699 0,3.785 L0,7.163 C0,7.166 0,7.169 0,7.172 C0,7.175 0,7.178 0,7.181 L0,11.141 C0,11.932 0.713,12.572 1.596,12.572 C2.479,12.572 3.192,11.932 3.192,11.141 L3.192,8.603 L27.069,8.603 L27.069,11.115 C27.069,11.906 27.781,12.547 28.664,12.547 C29.549,12.547 30.262,11.906 30.262,11.115 L30.262,3.785 C30.262,1.699 28.365,0.002 26.035,0.002 L26.035,0.002 Z" id="A"></path>
                </g>
                <path d="M27.863,3 C14.152,3 3,14.152 3,27.861 C3,41.572 14.152,52.727 27.863,52.727 C41.572,52.727 52.724,41.572 52.724,27.861 C52.724,14.152 41.572,3 27.863,3 Z M27.863,55.727 C12.498,55.727 0,43.227 0,27.861 C0,12.499 12.498,0 27.863,0 C43.224,0 55.724,12.499 55.724,27.861 C55.724,43.227 43.224,55.727 27.863,55.727 L27.863,55.727 Z" id="circle" fill="#57B2D9"></path>
            </g>
        </g>
    </g>
</svg>